<svg width="500" height="480" xmlns="http://www.w3.org/2000/svg">
 <!-- Created with Method Draw - http://github.com/duopixel/Method-Draw/ -->
 <g>
  <title>background</title>
  <rect fill="#fff" id="canvas_background" height="482" width="502" y="-1" x="-1"/>
 </g>
 <g>
  <title>Layer 1</title>
  <path d="m260.250458,128.719917c-0.499969,0 -0.999969,0 -1.499969,0c-0.999969,0 -2.499939,0 -4.499908,0c-1.999969,0 -3.902771,0.224201 -5.999908,0.999985c-1.933472,0.715237 -3.535828,0.845604 -5.999908,1.499973c-1.528137,0.405819 -2.999939,0.499996 -4.499908,0.999985c-1.5,0.499996 -2.953857,0.7481 -4.999939,0.999985c-1.488739,0.18327 -2.499939,0.499992 -3.999939,0.499992c-1.999969,0 -4.499908,0.499992 -6.999878,0.999981c-2.499969,0.499992 -4.453796,1.248093 -6.499878,1.499977c-1.48877,0.183273 -2.911835,0.743118 -3.999939,0.999985c-0.973236,0.229755 -1.999969,0.499992 -3.499939,0.999981c-1.5,0.499996 -3.515289,1.456127 -4.999939,1.999969c-2.528229,0.926109 -4.460083,1.583954 -6.499878,2.499958c-2.456238,1.103016 -3.999939,2.499954 -6.499908,3.999935c-2.499939,1.499969 -3.999939,2.499969 -5.999878,3.499943c-1,0.5 -1.5,1.499981 -1.999969,1.999966c-0.999985,0.999996 -1.603394,1.9063 -2.499969,2.99995c-1.142929,1.394142 -1.499969,2.499962 -1.999969,3.499947c-0.499985,0.999977 -0.770233,1.526718 -0.999985,2.499954c-0.256866,1.088104 -0.266861,1.548279 -0.999985,4.499931c-0.381134,1.534485 -0.999985,2.999947 -0.999985,4.999916c0,1.499977 0,2.999947 0,4.499924c0,1.499977 0.668747,3.154953 1.499985,4.499924c0.743484,1.20298 1.999969,1.999962 2.999954,2.999954c0.999969,0.999985 2.515289,1.956131 3.999924,2.499962c2.528259,0.926117 5.499908,2.499954 8.999847,2.999947c3.499939,0.499992 7.506775,0.751137 11.999817,0.999985c4.52066,0.250381 8.982849,0.749733 14.499756,0.999985c4.994781,0.22657 9.509918,-0.283554 13.499786,0c3.526581,0.250626 7.012054,0.253647 9.499847,0.499992c2.537048,0.251221 5.010132,0.252556 7.999847,0.499992c3.030975,0.250854 5.999908,0.499992 8.999878,0.499992c2.999939,0 5.999878,0 9.499817,0c2.999969,0 5.512085,-0.246338 7.999878,0c2.537079,0.251221 4.999908,0.999977 7.499878,0.999977c1.999969,0 3.999939,0 5.999908,0c2.499969,0 4.999908,0.499992 7.499878,0.499992c2.499939,0 5.012085,0.253647 7.499878,0.499992c2.537048,0.251221 5.010132,0.752548 7.999847,0.999985c3.030975,0.250854 5.003815,0.87571 6.999908,0.999985c4.023285,0.250481 6.462311,1.142349 9.999817,1.999969c2.477692,0.600685 5.499908,1.499977 7.999878,2.499954c2.499969,0.999985 5.097809,1.824402 6.999878,2.999954c2.126587,1.314308 3.225189,2.725197 4.499939,3.999931c1.27475,1.274727 2.660675,2.404472 3.499939,3.999939c1.253479,2.382957 2.836273,4.854164 3.999939,7.99987c0.71524,1.933472 1.243103,3.911804 1.499969,4.999908c0.229767,0.973236 0,1.999969 0,2.999954c0,0.999985 -1.557892,2.481873 -1.999969,3.999939c-0.576385,1.979309 -1.707916,3.880463 -2.499969,5.499908c-0.694672,1.420334 -1.705414,3.346146 -3.999908,4.999924c-1.813965,1.307434 -3.566467,2.284714 -5.499908,2.999939c-2.097137,0.775787 -4.490173,2.073975 -7.999878,2.499969c-4.988251,0.605438 -9.507568,0.75145 -13.499786,0.999985c-4.023285,0.250473 -8.479095,0.749603 -12.999786,0.999985c-4.493011,0.248856 -9.479095,0.249603 -13.999756,0.499985c-3.993805,0.221191 -7.499878,0 -11.499817,0c-3.499939,0 -6.504486,0.334091 -9.499847,0.499985c-4.520691,0.250381 -9.499847,0.5 -14.999756,0.5c-4.999908,0 -9.499847,0 -12.999786,0c-3.499939,0 -4.499939,0 -9.999847,0c-2.999939,0 -4.999908,0 -6.999878,0c-1.499969,0 -3.499939,0 -4.999908,0c-1.999969,0 -4.499939,0 -6.999878,0c-1.999969,0 -4.506226,-0.177216 -6.999908,0c-3.526581,0.250626 -6.499878,0.499985 -8.999847,0.499985c-1.999969,0 -3.499939,0 -3.999939,0c-0.499969,0 -0.999969,0 -1.499969,0.5l-0.5,0l-0.499969,0" id="svg_1" fill-opacity="null" stroke-opacity="null" stroke-width="10" stroke="#306856" fill="none"/>
  <path d="m267.250366,174.21917c-0.5,1.499977 -1,2.499969 -1.999969,4.499931c-1,1.999969 -2.911438,3.827385 -3.999939,6.999886c-0.827393,2.411469 -1.775146,4.820511 -2.999939,6.999878c-1.319153,2.347267 -2.499969,4.499924 -3.499969,6.999886c-0.999969,2.499954 -1.865692,5.038376 -2.499939,6.999886c-0.8284,2.561943 -1.499969,4.499924 -2.499969,6.999886c-0.999969,2.499954 -1.865692,4.538368 -2.499969,6.499901c-0.8284,2.56192 -1.559418,4.60762 -2.499939,7.499878c-1.037231,3.189621 -2.074249,5.972824 -3.499939,9.999832c-1.055359,2.980942 -1.896942,5.543625 -2.999969,7.999863c-1.374023,3.059692 -1.999969,4.999924 -2.999939,6.999893c-1,1.999969 -1.499969,2.999954 -1.999969,4.499924c-0.5,1.499969 -1.394897,3.039169 -1.999969,4.499924c-0.855682,2.065826 -1.192566,4.685913 -2.499969,6.499893c-0.413422,0.573624 -0.999969,1.499969 -1.499969,2.499954c-0.5,0.999985 -0.784729,2.066467 -1.499969,3.999939c-0.775787,2.097137 -2.207916,4.380478 -2.999939,5.999908c-0.694672,1.420334 -1,2.499954 -1.5,3.499939c-0.499969,0.999985 -1.243103,1.91185 -1.499969,2.999954c-0.459503,1.946472 -0.394897,4.039139 -0.999969,5.499908c-0.427856,1.032913 -1.281738,1.351227 -2.499969,3.999924c-0.660675,1.436478 -1.095123,2.940704 -1.999969,4.499939c-1.122314,1.933945 -1.789795,4.578369 -2.999939,7.499878c-0.855682,2.065811 -1.396942,3.543655 -2.499969,5.999893c-0.916016,2.039795 -0.972137,4.196045 -2.499969,7.499878c-0.756653,1.636246 -1.499969,2.999954 -1.999939,3.999939c-0.5,0.999985 -0.894928,2.039185 -1.5,3.499939c-0.855682,2.065826 -1.558411,4.483749 -2.499939,7.999863c-0.533234,1.991364 -1.557892,3.481873 -1.999969,4.999924c-0.576385,1.979309 -1.305298,3.57959 -1.999969,4.999908c-0.792053,1.619446 -1.229401,1.84671 -1.499969,2.499969c-0.191345,0.461945 -0.308655,1.038025 -0.5,1.499969c-0.270599,0.65329 -0.646454,0.646454 -1,1c-0.353546,0.353546 -0.499969,0.499969 -0.999969,0.999969l0,0.5l-0.5,0" id="svg_2" fill-opacity="null" stroke-opacity="null" stroke-width="10" stroke="#306856" fill="none"/>
  <path d="m186.251697,354.216213c0,-0.999969 2.048279,-0.766846 4.999908,-1.499969c3.06897,-0.762268 6.515167,-0.877563 10.999817,-1.499969c3.012451,-0.418091 4.962799,-0.748779 7.499878,-1c1.492676,-0.147797 2.999939,0 3.999939,0c0.5,0 1.999969,-0.499969 2.499939,-0.499969c1,0 2.499969,0 3.499969,0c1.999969,0 3.999908,0 6.499878,0c1.999969,0 4.499939,0 6.499908,0c1.999969,0 4.538635,-0.48053 7.499878,0c3.121368,0.506531 5.355927,1.990753 7.999847,2.499939c2.454865,0.472748 4.439209,0.746735 5.999908,1c1.480591,0.240265 2.953827,0.248108 4.999908,0.499969c1.984985,0.244354 3.499939,0 5.499908,0c1.5,0 3.009705,0.302917 4.999939,0.5c2.537048,0.251221 4.499908,0.5 7.499878,0.5c2.499939,0 4.453796,0.248108 6.499878,0.5c2.481232,0.30545 4.96283,0.248749 7.499878,0.499969c2.487793,0.246338 5.462799,0.248779 7.999878,0.5c2.985352,0.295624 4.999908,0 6.499878,0c1.5,0 3.499939,0 5.499908,0c1.999969,0 3.999939,0 5.999908,0c2.999969,0 5.999908,0.5 9.499847,0.5c2.999939,0 5.999908,-1 8.499878,-1c2.499939,0 4.462799,-0.248749 6.999878,-0.499969c1.990234,-0.197052 3.253998,0.642731 8.999847,-1.999969c2.648712,-1.218231 5.106201,-2.335571 7.499878,-3.999939c2.62854,-1.827698 4.468964,-4.039246 6.999878,-5.999908c1.976288,-1.531021 2.95874,-3.528259 3.999939,-4.999908c1.443909,-2.040817 2.999939,-3.499954 3.999939,-4.999924c0.999969,-1.499969 1.707916,-2.880493 2.499939,-4.499924c0.694672,-1.420349 1,-3.499939 1.5,-4.999924c0.499969,-1.499969 1.248077,-2.953842 1.499969,-4.999908c0.183289,-1.488739 0,-3.999939 0,-5.499924c0,-1.499969 0,-2.999939 0,-4.499924c0,-1.499969 0.434692,-3.064301 0,-4.499924c-0.52243,-1.725403 -2.072113,-3.46701 -2.499969,-4.499924c-0.605072,-1.460754 -1.595093,-2.94072 -2.499939,-4.499924c-1.122345,-1.933975 -1.846252,-3.592941 -2.499969,-4.499924c-0.826904,-1.147263 -1.603394,-1.906296 -2.499969,-2.999954c-1.142914,-1.394135 -2.605774,-2.85701 -3.999939,-3.999939c-1.640472,-1.344864 -2.725159,-2.725204 -3.999908,-3.999939c-1.27475,-1.274734 -3.373352,-2.685623 -5.499908,-3.999924c-1.902069,-1.175552 -4.565948,-2.377625 -6.499908,-3.499939c-1.559204,-0.904846 -3.806396,-2.384262 -6.499908,-3.499954c-1.904572,-0.788895 -4.392853,-1.637375 -4.999908,-1.999969c-4.481506,-2.676773 -7.40271,-2.724152 -9.499847,-3.499939c-1.933472,-0.71524 -4.012543,-0.940643 -6.499878,-1.499969c-2.011292,-0.452271 -4.019318,-0.759705 -5.499908,-0.999985c-1.560699,-0.253265 -3.512543,-0.940643 -5.999908,-1.499969c-2.011292,-0.452271 -4.492218,-0.540375 -6.999878,-0.999985c-2.991516,-0.548294 -5.453796,-0.748108 -7.499878,-0.999985c-1.984985,-0.244354 -3.999939,0 -6.499908,0c-1.999969,0 -4.512085,-0.253662 -6.999878,-0.5c-2.537079,-0.251221 -4.499939,-0.499985 -6.999878,-0.499985c-1.999969,0 -4.439209,-0.246735 -5.999908,-0.5c-2.467682,-0.400452 -3.999939,0 -5.999908,0c-1.999969,0 -3.525757,0.320358 -5.499908,0c-1.560699,-0.253265 -2.999939,-0.499985 -4.499908,-0.499985c-1.5,0 -2.499969,0 -4.499939,0c-1.499969,0 -2.499969,0 -2.999939,0c-1,0 -1.5,0 -2.499969,0c-0.999969,0 -1.499969,0 -2.499969,0c-1.999969,0 -3.999939,0 -6.499878,0c-1.999969,0 -2.999969,0 -3.999939,0c-1,0 -1.499969,0 -1.999969,0l0,0" id="svg_3" fill-opacity="null" stroke-opacity="null" stroke-width="10" stroke="#306856" fill="none"/>
  <path stroke="#306856" d="m100.253098,151.350549c1.004277,0 3.01283,0 6.025644,0c4.519252,0 9.54062,-1.0512 15.064134,-1.0512c4.017106,0 7.532067,0 10.042766,0c2.008538,0 4.572964,-0.483035 6.52779,0c2.185549,0.540046 4.521674,1.525011 5.021368,1.576801c5.095905,0.528168 7.494814,1.312713 10.042751,1.576801c2.498486,0.258963 5.492375,0.261899 8.536343,0.525602c2.502148,0.216761 5.021383,0 7.532067,0c2.510699,0 5.523514,0.525602 8.536343,0.525602c3.51496,0 6.527806,0.525602 10.042766,0.525602c3.012814,0 5.99449,0.261899 9.038474,0.525602c3.002547,0.26011 6.537889,-0.298078 10.544881,0c3.541717,0.263463 7.538871,0.822589 11.047027,1.051204c4.040553,0.26331 8.034213,0.525602 12.051319,0.525602c3.51496,0 7.532067,0 10.544881,0c3.51496,0 7.029921,0.525602 11.047027,0.525602c3.51496,0 7.029952,0 10.042766,0c3.51496,0 6.527775,0.525602 9.038474,0.525602c2.510699,0 5.021368,0 7.532067,0c2.008553,0 4.472942,0.260816 6.527806,0.525602c1.993474,0.256878 4.017076,0 5.523514,0c2.008553,0 4.017076,0 6.527775,0c3.012814,0 5.021368,0 7.532067,0c2.008553,0 4.572979,0.483039 6.527806,0c2.185518,-0.540046 3.956085,-1.310568 5.523514,-1.576805c0.991297,-0.168375 4.043004,0.336767 6.025629,0c1.567429,-0.266238 3.024124,-0.332941 4.519252,-0.525602c2.054863,-0.264786 2.510699,-0.525602 3.51496,-0.525602c1.004292,0 2.008553,-0.525602 3.012814,-0.525602c0.502146,0 0.502146,-0.525602 0.502146,-1.051204c0,-0.525602 0,-1.051204 0,-1.576805c0,-1.0512 0,-2.102403 0,-3.153603c0,-1.051204 0,-1.576805 0,-2.102407c0,-0.525602 0,-1.0512 0,-1.576801c0,-0.525602 -0.812095,-1.091212 -1.004261,-1.576805c-0.271761,-0.686735 -0.740316,-1.129697 -1.004292,-1.576801c-0.590291,-0.999742 -1.432452,-1.14218 -2.008553,-1.576805c-0.910875,-0.687188 -1.934598,-1.142184 -2.510669,-1.576801c-0.910875,-0.687212 -2.021977,-0.93044 -2.510699,-1.051204c-1.092774,-0.270023 -1.934598,-1.14218 -2.510699,-1.576805c-0.910875,-0.687188 -2.510669,-1.051204 -4.017076,-1.576801c-1.506438,-0.525606 -2.984434,-1.128851 -5.523544,-2.102407c-1.491022,-0.571686 -3.012814,-1.0512 -4.519222,-1.576801c-1.506407,-0.525602 -3.032276,-0.79862 -4.519252,-1.051204c-1.567398,-0.266238 -2.966505,-1.312019 -5.021368,-1.576801c-1.993505,-0.256878 -5.021368,-0.525602 -8.034213,-0.525602c-2.510669,0 -5.021368,0 -7.532067,0c-2.008553,0 -3.51496,0 -5.523514,0c-2.510669,0 -5.021368,0 -7.029921,0c-2.510699,0 -4.519252,0 -7.029921,0c-2.008553,0 -3.970796,-0.260816 -6.02566,-0.525602c-1.495129,-0.192656 -3.012814,0 -4.017106,0c-1.506407,0 -2.510669,0 -3.012814,0l-0.502146,0l-0.502146,0" id="svg_4" fill-opacity="null" stroke-opacity="null" stroke-width="10" fill="none"/>
  <path d="m258.749847,112.498146c-0.499969,0 -1.146423,-0.353554 -1.499969,0c-0.353546,0.353546 -0.999969,0.499992 -2.499954,0.999985c-1.499969,0.499992 -3.351273,1.27066 -4.999924,1.999969c-1.885284,0.833992 -3.411819,1.243111 -4.499924,1.499977c-1.459839,0.34462 -1.939255,0.746719 -3.499939,0.999985c-0.493546,0.080093 -0.999985,0.499985 -1.499985,0.499985l0,0.499992l-0.499985,0l-0.499985,0" id="svg_7" fill-opacity="null" stroke-width="10" stroke="#ffffff" fill="none"/>
  <path d="m291.249329,113.998123c-1,0 -2.5401,0.344627 -3.999939,0c-1.088104,-0.256866 -1.499969,-0.499992 -2.499969,-0.499992l-0.999969,0l-0.5,-0.499992" id="svg_8" fill-opacity="null" stroke-width="10" stroke="#ffffff" fill="none"/>
  <path d="m234.250259,120.998009c0.499985,0 0.93927,-0.246727 2.499954,-0.499992c1.480621,-0.240273 3.019318,-0.259727 4.499924,-0.499992c1.560699,-0.253265 2.999954,-0.999985 3.999939,-0.999985c0.999985,0 1.999969,-0.499992 2.499954,-0.499992c0.999985,0 1.499985,-0.499985 2.499969,-0.499985c0.999985,0 1.499969,-0.499992 2.499954,-0.499992c0.999985,0 1.999969,0 2.999954,0c0.999969,0 1.499969,-0.499992 2.499969,-0.499992c0.999969,0 1.499969,0 2.499939,0c0.5,0 1,-0.499992 1.499969,-0.499992c0.5,0 1,0 1.5,-0.499992l0.499969,0l0.5,0l0.5,0" id="svg_10" fill-opacity="null" stroke-width="10" stroke="#ffffff" fill="none"/>
  <path d="m237.750198,120.498016c0,0 0.999985,0 1.499985,0c0.999969,0 2.499954,0 4.499924,0c1.499969,0 4.499924,-0.999985 5.499908,-0.999985c4.499924,0 5.999893,-0.499992 7.499863,-0.499992c0.5,0 1.5,-0.499992 2.499969,-0.499992c0.5,0 0.911865,-0.243118 1.999969,-0.499985c0.486633,-0.114876 0.999969,-0.499992 1.499969,-0.499992c0.5,0 1.499969,-0.499992 1.999969,-0.499992c1,0 1.499969,-0.499992 1.999969,-0.499992c0.5,0 0.5,-0.499992 0.999969,-0.499992c0.5,0 0.646454,-0.146446 1,-0.499992c0.353546,-0.353554 0.999969,0 1.499969,0c0.5,0 1,0 1.499969,-0.499992l0.5,0l0.5,0" id="svg_12" fill-opacity="null" stroke-width="10" stroke="#ffffff" fill="none"/>
  <path d="m182.251106,264.495664c0,-1 0.919891,-1.506439 0.999985,-1.999969c0.253265,-1.560699 1.394897,-3.539154 1.999969,-4.999924c0.427841,-1.032913 0.61731,-2.57608 0.999985,-3.499939c0.541183,-1.306549 1.595108,-2.44072 2.499954,-3.999939c0.561172,-0.96698 0.339828,-2.012863 0.5,-2.999939c0.253265,-1.560699 0.618469,-3.176773 0.999985,-3.499954c2.320587,-1.965836 0.499985,-4.499924 0.499985,-5.499908l0,-0.499985l0,-0.5" id="svg_13" fill-opacity="null" stroke-width="10" stroke="#ffffff" fill="none"/>
  <path d="m189.75099,255.495816c0,0 0,-1.999969 0,-2.999954c0,-0.999985 0.499985,-1.999969 0.499985,-3.499939c0,-1.499985 0.243134,-2.911835 0.5,-3.999939c0.229752,-0.973236 0,-1.999969 0,-2.499954c0,-0.999985 -0.19133,-1.53804 0,-1.999969c0.270584,-0.653275 0.499985,-0.999985 0.999985,-1.999969c0.499985,-0.999985 0.999985,-1.999969 0.999985,-2.999954l0,-0.499985l0,-0.5" id="svg_14" fill-opacity="null" stroke-width="10" stroke="#ffffff" fill="none"/>
  <path d="m187.751022,239.496064c0,0 0.146439,-0.353546 0.499985,0c0.707092,0.707092 0,1.499985 0,1.999969c0,0.5 -0.353546,1.146439 0,1.499985c0.353546,0.353546 0.5,0.499985 0.5,0.999985c0,0 0,0.999985 0,1.499969c0,0.499985 0.729385,0.34671 0.999985,0.999985c0.382675,0.923859 0.499985,1.499969 0.499985,1.999969l0,0.499985" id="svg_15" fill-opacity="null" stroke-width="10" stroke="#ffffff" fill="none"/>
  <polyline transform="rotate(40.60133361816406 189.50099182128898,364.49401855468756) " stroke-linecap="round" id="svg_16" points="189.2509936971246,364.49402683110407 189.75098551854745,364.49402683110407 " fill-opacity="null" stroke-width="10" stroke="#ffffff" fill="none"/>
  <path d="m178.251175,337.994446c0,1 -0.259735,1.519379 -0.5,2.999969c-0.253265,1.560699 -0.316711,3.511169 -0.499985,4.999908c-0.251877,2.046082 -0.499985,3.999939 -0.499985,5.499908c0,1.499969 0,2.499969 0,2.999969c0,0.999969 0.080093,2.006439 0,2.499939c-0.253265,1.560699 -0.270264,2.526733 -0.5,3.499939c-0.256866,1.088135 -0.499985,1.999969 -0.499985,2.999969c0,0.5 0,1.499969 0,1.999969l0,0.999969l-0.5,0.5l0,0.5" id="svg_18" fill-opacity="null" stroke-width="10" stroke="#ffffff" fill="none"/>
  <path d="m173.251251,353.994202c0.5,0.5 0.999985,0.5 1.499985,0.5c0.999985,0 1.999969,0 2.499954,0c0.999985,0 1.499969,0 1.499969,0.499969l0.5,0l0.499985,0" id="svg_19" fill-opacity="null" stroke-width="10" stroke="#ffffff" fill="none"/>
  <path d="m175.251221,355.494171c0,0 0.999985,0 1.499985,0c0.499985,0 0.410522,-0.649323 1.999954,-1.499969c0.440842,-0.235931 1.30864,-0.538055 1.499985,-1c0.270584,-0.653259 1.229385,-0.34671 1.499969,-0.999969c0.191345,-0.461945 0.146469,-0.646423 0.5,-0.999969c0.353546,-0.353546 0.499985,-0.5 0.999985,-0.5l0,-0.5l0,-0.5" id="svg_20" fill-opacity="null" stroke-width="10" stroke="#ffffff" fill="none"/>
  <path d="m181.251129,348.994293c0,-0.5 1.03804,-0.308655 1.499969,-0.5c0.653275,-0.270599 0.999985,-0.5 1.499969,-0.5l0,-0.5l0.5,0l0.499985,0" id="svg_21" fill-opacity="null" stroke-width="10" stroke="#ffffff" fill="none"/>
  <path d="m184.751067,347.494305c0,0.5 0,0.999969 0,1.499969c0,0.5 0,1 0,1.499969l0.999985,0.5" id="svg_22" fill-opacity="null" stroke-width="10" stroke="#ffffff" fill="none"/>
  <path d="m200.750809,364.494019c0,0 0,-0.499969 -0.999985,-0.499969c-0.5,0 -1.346695,-0.229401 -1.999969,-0.5c-0.461929,-0.191345 -1.146423,-0.146454 -1.499969,-0.5c-0.353546,-0.353546 -0.999985,-0.5 -1.499985,-0.5c-0.499985,0 -0.499985,-0.499969 -0.999985,-0.499969c-0.499985,0 -0.846695,-0.229401 -1.499969,-0.5c-0.461945,-0.191345 -0.999985,0 -1.499969,0c-0.5,0 -0.999985,0 -1.499985,0l-0.499985,0l-0.5,0" id="svg_24" fill-opacity="null" stroke-opacity="null" stroke-width="10" stroke="#ffffff" fill="none"/>
  <polyline stroke-linecap="round" id="svg_25" points="225.25040483956928,395.49351975932035 225.75039666099212,395.49351975932035 " fill-opacity="null" stroke-opacity="null" stroke-width="10" stroke="#ffffff" fill="none"/>
  <path d="m194.250916,362.494049c-0.5,0 -0.999985,0 -1.499985,0c-0.499985,0 -1.614151,0.574005 -2.999939,0c-1.306534,-0.541168 -1.999969,-0.999969 -2.499969,-0.999969c-0.499985,0 -0.499985,-0.5 -0.999985,-0.5c-0.499985,0 -0.846695,-0.229401 -1.499969,-0.5c-0.461945,-0.191345 -0.911865,-0.243103 -1.999969,-0.499969c-0.486618,-0.114868 -0.646439,-0.146454 -0.999985,-0.5c-0.353546,-0.353546 -1.146423,0.353546 -1.499969,0c-0.353546,-0.353546 -0.243134,-0.911865 -0.5,-1.999969c-0.114883,-0.486633 -0.499985,-0.999969 -0.499985,-1.499969c0,-0.5 -0.5,-1 -0.5,-1.999969c0,-0.5 0,-1 0,-1.499969c0,-0.5 0,-1 0,-1.499969c0,-0.5 0,-1 0,-1.5l0,-0.499969l0,-0.5l0,-0.5" id="svg_26" fill-opacity="null" stroke-opacity="null" stroke-width="10" stroke="#ffffff" fill="none"/>
  <path d="m205.750717,364.994019c0,0 -0.999969,0 -1.499969,0c-0.999985,0 -1.84668,-1.22937 -2.499954,-1.499969c-0.461945,-0.191345 -0.84671,-0.229401 -1.499985,-0.5c-0.461929,-0.191345 -1.146423,0.353546 -1.499969,0c-0.353546,-0.353546 -0.646439,-0.146454 -0.999985,-0.5c-0.353531,-0.353546 -0.426346,-0.586517 -0.999985,-0.999969c-0.906982,-0.653717 -0.999985,-1 -1.499969,-1c-0.5,0 -0.999985,-0.499969 -1.999969,-0.999969c-0.999985,-0.5 -1.846695,-1.229401 -2.499954,-1.499969c-0.461945,-0.191345 -0.84671,-0.229401 -1.499985,-0.5c-0.923859,-0.38269 -1.146423,-0.146454 -1.499969,-0.5c-0.707092,-0.707092 -1.146454,-0.146423 -1.499985,-0.499969c-0.353546,-0.353546 -0.999985,0 -1.499969,-0.5l-0.5,0l0,-0.5l0,0" id="svg_27" fill-opacity="null" stroke-opacity="null" stroke-width="10" stroke="#ffffff" fill="none"/>
  <polyline stroke-linecap="round" id="svg_28" points="302.7491371601099,407.99331529489143 302.7491371601099,408.49330711631427 302.2491453386871,408.49330711631427 " fill-opacity="null" stroke-opacity="null" stroke-width="10" stroke="#ffffff" fill="none"/>
 </g>
</svg>